<svg width="64" height="64" viewBox="0 0 64 64" fill="none" xmlns="http://www.w3.org/2000/svg">
  <circle cx="32" cy="32" r="32" fill="#F7931A"/>
  <path d="M42 28C42.5 24.5 39.5 22.5 35.5 21.5L36.5 17.5L33.5 16.5L32.5 20.5C31.5 20.25 30.5 20 29.5 19.75L30.5 15.5L27.5 14.5L26.5 18.5C25.75 18.25 25 18 24.25 17.75L24.25 17.5L20 16.25L19 19.5C19 19.5 21 20 21 20C22 20.25 22.25 21 22.25 21.5L20.5 29.5C20.5 29.75 20.5 30 20.25 30.25C20.25 30.25 18.25 29.75 18.25 29.75L17 33.5L21 34.75L21 34.75C21.75 35 22.5 35.25 23.25 35.5L22.25 39.5L25.25 40.5L26.25 36.5C27.25 36.75 28.25 37 29.25 37.25L28.25 41.25L31.25 42.25L32.25 38.25C37.25 39.25 41 38.75 42.5 34.25C43.75 30.75 42.5 28.75 40 27.5C41.5 27 42.5 26 42 28ZM37.5 33C36.75 36.25 31 34.75 29 34.25L30.25 29C32.25 29.5 38.25 29.5 37.5 33ZM38.25 25.5C37.5 28.5 33 27.25 31.25 26.75L32.5 22C34.25 22.5 39 21.75 38.25 25.5Z" fill="white"/>
</svg>
